# xmcd
#
# Track frame offsets: 
#        182
#        13190
#        26030
#        39582
#        52807
#        66260
#        78595
#        89440
#        99522
#        109205
#        120872
#        131437
#        143810
#        155800
#        164910
#        176022
#        186375
#
# Disc length: 2668 seconds
#
# Revision: 0
# Processed by: cddbd v1.5.1PL0 Copyright (c) Steve Scherf et al.
# Submitted via: ExactAudioCopy v0.95a5
#
DISCID=ee0a6a11
DTITLE=Du Droppers - Can't Do Sixty No More
DYEAR=1900
DGENRE=R&B
TTITLE0=Can't Do Sixty No More
TTITLE1=Laughing Blues
TTITLE2=Come On And Love Me Baby
TTITLE3=Get Lost
TTITLE4=Chain Me Baby
TTITLE5=Go Back
TTITLE6=Somebody Work On My Baby's Mind
TTITLE7=Mama's Gone Goodbye
TTITLE8=Honey Bunch
TTITLE9=Don't Pass Me By
TTITLE10=I Wanna Know
TTITLE11=Whatever You're Doin
TTITLE12=How Much Longer
TTITLE13=I Wanna Love You
TTITLE14=I Only Had A Little
TTITLE15=You're Mine Already
TTITLE16=The Note In The Bottle
EXTD=
EXTT0=
EXTT1=
EXTT2=
EXTT3=
EXTT4=
EXTT5=
EXTT6=
EXTT7=
EXTT8=
EXTT9=
EXTT10=
EXTT11=
EXTT12=
EXTT13=
EXTT14=
EXTT15=
EXTT16=
PLAYORDER=
